<mxfile host="Electron" modified="2024-05-02T19:24:24.688Z" agent="Mozilla/5.0 (Windows NT 10.0; Win64; x64) AppleWebKit/537.36 (KHTML, like Gecko) draw.io/24.2.5 Chrome/120.0.6099.109 Electron/28.1.0 Safari/537.36" etag="LISBT-bfdSz8U9gNVeWH" version="24.2.5" type="device">
  <diagram id="b9FNjDXTkxt2mqBvIQhz" name="Page-4">
    <mxGraphModel dx="3183" dy="2480" grid="1" gridSize="10" guides="1" tooltips="1" connect="1" arrows="1" fold="1" page="1" pageScale="1" pageWidth="850" pageHeight="1100" background="#ffffff" math="0" shadow="0">
      <root>
        <mxCell id="0" />
        <mxCell id="1" parent="0" />
        <mxCell id="XHKxCGprkvozCFPUDnfJ-1" value="" style="rounded=1;html=1;labelBackgroundColor=#ea2610;textShadow=1;labelBorderColor=none;fillColor=#fad7ac;strokeColor=#b46504;gradientDirection=radial;strokeWidth=1;fillStyle=solid;fontSize=18;fontStyle=1" parent="1" vertex="1">
          <mxGeometry x="-180" y="-550" width="2820" height="2990" as="geometry" />
        </mxCell>
        <mxCell id="hpfhYlzzf-C4YX28FUgR-1" style="edgeStyle=none;rounded=0;orthogonalLoop=1;jettySize=auto;html=1;exitX=1;exitY=0.3333333333333333;exitDx=0;exitDy=0;exitPerimeter=0;entryX=0;entryY=0.5;entryDx=0;entryDy=0;fontFamily=Consolas;fontStyle=1;fontSize=18;labelBorderColor=none;textShadow=0;strokeWidth=1;" parent="1" source="hpfhYlzzf-C4YX28FUgR-11" target="hpfhYlzzf-C4YX28FUgR-16" edge="1">
          <mxGeometry relative="1" as="geometry" />
        </mxCell>
        <mxCell id="hpfhYlzzf-C4YX28FUgR-2" style="edgeStyle=none;rounded=0;orthogonalLoop=1;jettySize=auto;html=1;exitX=1;exitY=0.3333333333333333;exitDx=0;exitDy=0;exitPerimeter=0;entryX=0;entryY=0.5;entryDx=0;entryDy=0;fontFamily=Consolas;fontStyle=1;fontSize=18;labelBorderColor=none;textShadow=0;strokeWidth=1;" parent="1" source="hpfhYlzzf-C4YX28FUgR-11" target="hpfhYlzzf-C4YX28FUgR-12" edge="1">
          <mxGeometry relative="1" as="geometry" />
        </mxCell>
        <mxCell id="hpfhYlzzf-C4YX28FUgR-3" style="edgeStyle=none;rounded=0;orthogonalLoop=1;jettySize=auto;html=1;exitX=1;exitY=0.3333333333333333;exitDx=0;exitDy=0;exitPerimeter=0;entryX=0;entryY=0.5;entryDx=0;entryDy=0;fontFamily=Consolas;fontStyle=1;fontSize=18;labelBorderColor=none;textShadow=0;strokeWidth=1;" parent="1" source="hpfhYlzzf-C4YX28FUgR-11" target="hpfhYlzzf-C4YX28FUgR-17" edge="1">
          <mxGeometry relative="1" as="geometry" />
        </mxCell>
        <mxCell id="hpfhYlzzf-C4YX28FUgR-4" style="edgeStyle=none;rounded=0;orthogonalLoop=1;jettySize=auto;html=1;exitX=1;exitY=0.3333333333333333;exitDx=0;exitDy=0;exitPerimeter=0;entryX=0;entryY=0.5;entryDx=0;entryDy=0;fontFamily=Consolas;fontStyle=1;fontSize=18;labelBorderColor=none;textShadow=0;strokeWidth=1;" parent="1" source="hpfhYlzzf-C4YX28FUgR-11" target="hpfhYlzzf-C4YX28FUgR-20" edge="1">
          <mxGeometry relative="1" as="geometry" />
        </mxCell>
        <mxCell id="hpfhYlzzf-C4YX28FUgR-5" style="edgeStyle=none;rounded=0;orthogonalLoop=1;jettySize=auto;html=1;exitX=1;exitY=0.3333333333333333;exitDx=0;exitDy=0;exitPerimeter=0;entryX=0;entryY=0.5;entryDx=0;entryDy=0;fontFamily=Consolas;fontStyle=1;fontSize=18;labelBorderColor=none;textShadow=0;strokeWidth=1;" parent="1" source="hpfhYlzzf-C4YX28FUgR-11" target="hpfhYlzzf-C4YX28FUgR-23" edge="1">
          <mxGeometry relative="1" as="geometry" />
        </mxCell>
        <mxCell id="hpfhYlzzf-C4YX28FUgR-6" style="edgeStyle=none;rounded=0;orthogonalLoop=1;jettySize=auto;html=1;exitX=1;exitY=0.3333333333333333;exitDx=0;exitDy=0;exitPerimeter=0;entryX=0;entryY=0.5;entryDx=0;entryDy=0;fontFamily=Consolas;fontStyle=1;fontSize=18;labelBorderColor=none;textShadow=0;strokeWidth=1;" parent="1" source="hpfhYlzzf-C4YX28FUgR-11" target="hpfhYlzzf-C4YX28FUgR-24" edge="1">
          <mxGeometry relative="1" as="geometry" />
        </mxCell>
        <mxCell id="hpfhYlzzf-C4YX28FUgR-7" style="edgeStyle=none;rounded=0;orthogonalLoop=1;jettySize=auto;html=1;exitX=1;exitY=0.3333333333333333;exitDx=0;exitDy=0;exitPerimeter=0;entryX=0;entryY=0.5;entryDx=0;entryDy=0;fontFamily=Consolas;fontStyle=1;fontSize=18;labelBorderColor=none;textShadow=0;strokeWidth=1;" parent="1" source="hpfhYlzzf-C4YX28FUgR-11" target="hpfhYlzzf-C4YX28FUgR-25" edge="1">
          <mxGeometry relative="1" as="geometry" />
        </mxCell>
        <mxCell id="hpfhYlzzf-C4YX28FUgR-8" style="edgeStyle=none;rounded=0;orthogonalLoop=1;jettySize=auto;html=1;exitX=1;exitY=0.3333333333333333;exitDx=0;exitDy=0;exitPerimeter=0;entryX=0;entryY=0.5;entryDx=0;entryDy=0;fontFamily=Consolas;fontStyle=1;fontSize=18;labelBorderColor=none;textShadow=0;strokeWidth=1;" parent="1" source="hpfhYlzzf-C4YX28FUgR-11" target="hpfhYlzzf-C4YX28FUgR-59" edge="1">
          <mxGeometry relative="1" as="geometry" />
        </mxCell>
        <mxCell id="hpfhYlzzf-C4YX28FUgR-9" style="edgeStyle=none;rounded=0;orthogonalLoop=1;jettySize=auto;html=1;exitX=1;exitY=0.3333333333333333;exitDx=0;exitDy=0;exitPerimeter=0;entryX=0;entryY=0.5;entryDx=0;entryDy=0;fontFamily=Consolas;fontStyle=1;fontSize=18;labelBorderColor=none;textShadow=0;strokeWidth=1;" parent="1" source="hpfhYlzzf-C4YX28FUgR-11" target="hpfhYlzzf-C4YX28FUgR-111" edge="1">
          <mxGeometry relative="1" as="geometry" />
        </mxCell>
        <mxCell id="hpfhYlzzf-C4YX28FUgR-10" style="edgeStyle=none;rounded=0;orthogonalLoop=1;jettySize=auto;html=1;exitX=1;exitY=0.3333333333333333;exitDx=0;exitDy=0;exitPerimeter=0;entryX=0;entryY=0.5;entryDx=0;entryDy=0;strokeWidth=1;fontSize=18;fontStyle=1" parent="1" source="hpfhYlzzf-C4YX28FUgR-11" target="hpfhYlzzf-C4YX28FUgR-118" edge="1">
          <mxGeometry relative="1" as="geometry" />
        </mxCell>
        <mxCell id="hpfhYlzzf-C4YX28FUgR-11" value="&lt;font style=&quot;font-size: 30px;&quot;&gt;Customer&lt;/font&gt;" style="shape=umlActor;verticalLabelPosition=bottom;verticalAlign=top;html=1;fontFamily=Consolas;fontStyle=1;fontSize=18;whiteSpace=wrap;labelBorderColor=none;textShadow=0;fillColor=#dae8fc;strokeColor=#6c8ebf;strokeWidth=1;gradientColor=#7ea6e0;" parent="1" vertex="1">
          <mxGeometry x="20" y="180" width="130" height="210" as="geometry" />
        </mxCell>
        <mxCell id="hpfhYlzzf-C4YX28FUgR-12" value="&lt;span style=&quot;font-size: 18px;&quot;&gt;&lt;font style=&quot;font-size: 18px;&quot;&gt;Home Page&lt;/font&gt;&lt;/span&gt;" style="ellipse;whiteSpace=wrap;html=1;fontFamily=Consolas;fontStyle=1;fontSize=18;labelBorderColor=none;textShadow=0;strokeWidth=1;fillColor=#b1ddf0;strokeColor=#10739e;" parent="1" vertex="1">
          <mxGeometry x="620" y="70" width="140" height="70" as="geometry" />
        </mxCell>
        <mxCell id="hpfhYlzzf-C4YX28FUgR-13" style="edgeStyle=none;rounded=0;orthogonalLoop=1;jettySize=auto;html=1;exitX=1;exitY=0.5;exitDx=0;exitDy=0;entryX=0;entryY=0.5;entryDx=0;entryDy=0;fontFamily=Consolas;fontStyle=1;fontSize=18;labelBorderColor=none;textShadow=0;strokeWidth=1;" parent="1" source="hpfhYlzzf-C4YX28FUgR-16" target="hpfhYlzzf-C4YX28FUgR-115" edge="1">
          <mxGeometry relative="1" as="geometry" />
        </mxCell>
        <mxCell id="hpfhYlzzf-C4YX28FUgR-14" style="edgeStyle=none;rounded=0;orthogonalLoop=1;jettySize=auto;html=1;exitX=1;exitY=0.5;exitDx=0;exitDy=0;entryX=0;entryY=0.5;entryDx=0;entryDy=0;fontFamily=Consolas;fontStyle=1;fontSize=18;labelBorderColor=none;textShadow=0;strokeWidth=1;" parent="1" source="hpfhYlzzf-C4YX28FUgR-16" target="hpfhYlzzf-C4YX28FUgR-116" edge="1">
          <mxGeometry relative="1" as="geometry" />
        </mxCell>
        <mxCell id="hpfhYlzzf-C4YX28FUgR-15" style="edgeStyle=none;rounded=0;orthogonalLoop=1;jettySize=auto;html=1;exitX=1;exitY=0.5;exitDx=0;exitDy=0;entryX=0;entryY=0.5;entryDx=0;entryDy=0;fontFamily=Consolas;fontStyle=1;fontSize=18;labelBorderColor=none;textShadow=0;strokeWidth=1;" parent="1" source="hpfhYlzzf-C4YX28FUgR-16" target="hpfhYlzzf-C4YX28FUgR-117" edge="1">
          <mxGeometry relative="1" as="geometry" />
        </mxCell>
        <mxCell id="hpfhYlzzf-C4YX28FUgR-16" value="&lt;div style=&quot;font-size: 18px;&quot;&gt;&lt;span style=&quot;font-size: 18px;&quot;&gt;&lt;span style=&quot;font-size: 18px;&quot;&gt;User&lt;/span&gt;&lt;/span&gt;&lt;/div&gt;&lt;span style=&quot;font-size: 18px;&quot;&gt;&lt;span style=&quot;font-size: 18px;&quot;&gt;Authentication&lt;/span&gt;&lt;/span&gt;" style="ellipse;whiteSpace=wrap;html=1;fontFamily=Consolas;fontStyle=1;fontSize=18;labelBorderColor=none;textShadow=0;strokeWidth=1;fillColor=#b1ddf0;strokeColor=#10739e;" parent="1" vertex="1">
          <mxGeometry x="610" y="-370" width="140" height="100" as="geometry" />
        </mxCell>
        <mxCell id="hpfhYlzzf-C4YX28FUgR-17" value="&lt;span style=&quot;font-size: 18px;&quot;&gt;&lt;font style=&quot;font-size: 18px;&quot;&gt;Vendors&#39; List&lt;/font&gt;&lt;/span&gt;" style="ellipse;whiteSpace=wrap;html=1;fontFamily=Consolas;fontStyle=1;fontSize=18;labelBorderColor=none;textShadow=0;strokeWidth=1;fillColor=#b1ddf0;strokeColor=#10739e;" parent="1" vertex="1">
          <mxGeometry x="625" y="180" width="140" height="70" as="geometry" />
        </mxCell>
        <mxCell id="hpfhYlzzf-C4YX28FUgR-18" style="edgeStyle=none;rounded=0;orthogonalLoop=1;jettySize=auto;html=1;exitX=1;exitY=0.5;exitDx=0;exitDy=0;entryX=0;entryY=0.5;entryDx=0;entryDy=0;fontFamily=Consolas;fontStyle=1;fontSize=18;labelBorderColor=none;textShadow=0;strokeWidth=1;" parent="1" source="hpfhYlzzf-C4YX28FUgR-20" target="hpfhYlzzf-C4YX28FUgR-21" edge="1">
          <mxGeometry relative="1" as="geometry" />
        </mxCell>
        <mxCell id="hpfhYlzzf-C4YX28FUgR-19" style="edgeStyle=none;rounded=0;orthogonalLoop=1;jettySize=auto;html=1;exitX=1;exitY=0.5;exitDx=0;exitDy=0;entryX=0;entryY=0.5;entryDx=0;entryDy=0;fontFamily=Consolas;fontStyle=1;fontSize=18;labelBorderColor=none;textShadow=0;strokeWidth=1;" parent="1" source="hpfhYlzzf-C4YX28FUgR-20" target="hpfhYlzzf-C4YX28FUgR-22" edge="1">
          <mxGeometry relative="1" as="geometry" />
        </mxCell>
        <mxCell id="hpfhYlzzf-C4YX28FUgR-20" value="&lt;span style=&quot;font-size: 18px;&quot;&gt;&lt;span style=&quot;font-size: 18px;&quot;&gt;Filters&lt;/span&gt;&lt;/span&gt;" style="ellipse;whiteSpace=wrap;html=1;fontFamily=Consolas;fontStyle=1;fontSize=18;labelBorderColor=none;textShadow=0;strokeWidth=1;fillColor=#b1ddf0;strokeColor=#10739e;" parent="1" vertex="1">
          <mxGeometry x="625" y="300" width="140" height="70" as="geometry" />
        </mxCell>
        <mxCell id="hpfhYlzzf-C4YX28FUgR-21" value="&lt;span style=&quot;font-size: 18px;&quot;&gt;&lt;font style=&quot;font-size: 18px;&quot;&gt;Veg/Non-Veg&lt;/font&gt;&lt;/span&gt;" style="ellipse;whiteSpace=wrap;html=1;fontFamily=Consolas;fontStyle=1;fontSize=18;labelBorderColor=none;textShadow=0;strokeWidth=1;fillColor=#b1ddf0;strokeColor=#10739e;" parent="1" vertex="1">
          <mxGeometry x="935" y="240" width="140" height="70" as="geometry" />
        </mxCell>
        <mxCell id="hpfhYlzzf-C4YX28FUgR-22" value="&lt;span style=&quot;font-size: 18px;&quot;&gt;&lt;font style=&quot;font-size: 18px;&quot;&gt;BreakFast,&lt;/font&gt;&lt;/span&gt;&lt;div style=&quot;font-size: 18px;&quot;&gt;&lt;span style=&quot;font-size: 18px;&quot;&gt;&lt;font style=&quot;font-size: 18px;&quot;&gt;Lunch,&lt;/font&gt;&lt;/span&gt;&lt;/div&gt;&lt;div style=&quot;font-size: 18px;&quot;&gt;&lt;span style=&quot;font-size: 18px;&quot;&gt;&lt;font style=&quot;font-size: 18px;&quot;&gt;Dinner&lt;/font&gt;&lt;/span&gt;&lt;/div&gt;" style="ellipse;whiteSpace=wrap;html=1;fontFamily=Consolas;fontStyle=1;fontSize=18;labelBorderColor=none;textShadow=0;strokeWidth=1;fillColor=#b1ddf0;strokeColor=#10739e;" parent="1" vertex="1">
          <mxGeometry x="935" y="350" width="140" height="70" as="geometry" />
        </mxCell>
        <mxCell id="hpfhYlzzf-C4YX28FUgR-23" value="&lt;span style=&quot;font-size: 18px;&quot;&gt;&lt;span style=&quot;font-size: 18px;&quot;&gt;Vendor&#39;s&amp;nbsp;&lt;br style=&quot;font-size: 18px;&quot;&gt;Menu Page&lt;/span&gt;&lt;/span&gt;" style="ellipse;whiteSpace=wrap;html=1;fontFamily=Consolas;fontStyle=1;fontSize=18;labelBorderColor=none;textShadow=0;strokeWidth=1;fillColor=#b1ddf0;strokeColor=#10739e;" parent="1" vertex="1">
          <mxGeometry x="630" y="400" width="140" height="70" as="geometry" />
        </mxCell>
        <mxCell id="hpfhYlzzf-C4YX28FUgR-24" value="&lt;span style=&quot;font-size: 18px;&quot;&gt;&lt;span style=&quot;font-size: 18px;&quot;&gt;Add Item to&lt;br style=&quot;font-size: 18px;&quot;&gt;Cart&lt;/span&gt;&lt;/span&gt;" style="ellipse;whiteSpace=wrap;html=1;fontFamily=Consolas;fontStyle=1;fontSize=18;labelBorderColor=none;textShadow=0;strokeWidth=1;fillColor=#b1ddf0;strokeColor=#10739e;" parent="1" vertex="1">
          <mxGeometry x="630" y="510" width="140" height="70" as="geometry" />
        </mxCell>
        <mxCell id="hpfhYlzzf-C4YX28FUgR-25" value="&lt;span style=&quot;font-size: 18px;&quot;&gt;&lt;span style=&quot;font-size: 18px;&quot;&gt;Cart&lt;br style=&quot;font-size: 18px;&quot;&gt;Functionality&lt;/span&gt;&lt;/span&gt;" style="ellipse;whiteSpace=wrap;html=1;fontFamily=Consolas;fontStyle=1;fontSize=18;labelBorderColor=none;textShadow=0;strokeWidth=1;fillColor=#b1ddf0;strokeColor=#10739e;" parent="1" vertex="1">
          <mxGeometry x="630" y="650" width="140" height="70" as="geometry" />
        </mxCell>
        <mxCell id="hpfhYlzzf-C4YX28FUgR-26" style="edgeStyle=none;rounded=0;orthogonalLoop=1;jettySize=auto;html=1;exitX=0.5;exitY=1;exitDx=0;exitDy=0;fontFamily=Consolas;fontStyle=1;fontSize=18;labelBorderColor=none;textShadow=0;strokeWidth=1;" parent="1" source="hpfhYlzzf-C4YX28FUgR-27" target="hpfhYlzzf-C4YX28FUgR-29" edge="1">
          <mxGeometry relative="1" as="geometry" />
        </mxCell>
        <mxCell id="hpfhYlzzf-C4YX28FUgR-27" value="&lt;span style=&quot;font-size: 18px;&quot;&gt;&lt;font style=&quot;font-size: 18px;&quot;&gt;Sign-Up/Sign-In&lt;/font&gt;&lt;/span&gt;" style="ellipse;whiteSpace=wrap;html=1;fontFamily=Consolas;fontStyle=1;fontSize=18;labelBorderColor=none;textShadow=0;strokeWidth=1;fillColor=#b1ddf0;strokeColor=#10739e;" parent="1" vertex="1">
          <mxGeometry x="935" y="580" width="140" height="70" as="geometry" />
        </mxCell>
        <mxCell id="hpfhYlzzf-C4YX28FUgR-28" style="edgeStyle=none;rounded=0;orthogonalLoop=1;jettySize=auto;html=1;exitX=1;exitY=0.5;exitDx=0;exitDy=0;entryX=0;entryY=0.5;entryDx=0;entryDy=0;fontFamily=Consolas;fontStyle=1;fontSize=18;labelBorderColor=none;textShadow=0;strokeWidth=1;" parent="1" source="hpfhYlzzf-C4YX28FUgR-29" target="hpfhYlzzf-C4YX28FUgR-31" edge="1">
          <mxGeometry relative="1" as="geometry" />
        </mxCell>
        <mxCell id="hpfhYlzzf-C4YX28FUgR-29" value="&lt;span style=&quot;font-size: 18px;&quot;&gt;&lt;span style=&quot;font-size: 18px;&quot;&gt;Select/ Choose&lt;/span&gt;&lt;/span&gt;&lt;div style=&quot;font-size: 18px;&quot;&gt;&lt;span style=&quot;font-size: 18px;&quot;&gt;&lt;span style=&quot;font-size: 18px;&quot;&gt;Address&lt;/span&gt;&lt;/span&gt;&lt;/div&gt;" style="ellipse;whiteSpace=wrap;html=1;fontFamily=Consolas;fontStyle=1;fontSize=18;labelBorderColor=none;textShadow=0;strokeWidth=1;fillColor=#b1ddf0;strokeColor=#10739e;" parent="1" vertex="1">
          <mxGeometry x="935" y="730" width="140" height="70" as="geometry" />
        </mxCell>
        <mxCell id="hpfhYlzzf-C4YX28FUgR-30" value="&lt;span style=&quot;font-size: 18px;&quot;&gt;&lt;font style=&quot;font-size: 18px;&quot;&gt;If not logged in&lt;/font&gt;&lt;/span&gt;" style="endArrow=block;endSize=16;endFill=0;html=1;rounded=0;exitX=1;exitY=0.5;exitDx=0;exitDy=0;entryX=0;entryY=0.5;entryDx=0;entryDy=0;fontFamily=Consolas;fontStyle=1;fontSize=18;labelBorderColor=none;textShadow=0;strokeWidth=1;" parent="1" source="hpfhYlzzf-C4YX28FUgR-25" target="hpfhYlzzf-C4YX28FUgR-27" edge="1">
          <mxGeometry width="160" relative="1" as="geometry">
            <mxPoint x="360" y="670" as="sourcePoint" />
            <mxPoint x="520" y="670" as="targetPoint" />
          </mxGeometry>
        </mxCell>
        <mxCell id="hpfhYlzzf-C4YX28FUgR-31" value="&lt;span style=&quot;font-size: 18px;&quot;&gt;&lt;span style=&quot;font-size: 18px;&quot;&gt;Proceed&lt;/span&gt;&lt;/span&gt;&lt;div style=&quot;font-size: 18px;&quot;&gt;&lt;span style=&quot;font-size: 18px;&quot;&gt;&lt;span style=&quot;font-size: 18px;&quot;&gt;To&lt;/span&gt;&lt;/span&gt;&lt;/div&gt;&lt;div style=&quot;font-size: 18px;&quot;&gt;&lt;span style=&quot;font-size: 18px;&quot;&gt;&lt;span style=&quot;font-size: 18px;&quot;&gt;Payment&lt;/span&gt;&lt;/span&gt;&lt;/div&gt;" style="ellipse;whiteSpace=wrap;html=1;fontFamily=Consolas;fontStyle=1;fontSize=18;labelBorderColor=none;textShadow=0;strokeWidth=1;fillColor=#b1ddf0;strokeColor=#10739e;" parent="1" vertex="1">
          <mxGeometry x="1140" y="730" width="140" height="70" as="geometry" />
        </mxCell>
        <mxCell id="hpfhYlzzf-C4YX28FUgR-33" style="edgeStyle=none;rounded=0;orthogonalLoop=1;jettySize=auto;html=1;exitX=1;exitY=0.3333333333333333;exitDx=0;exitDy=0;exitPerimeter=0;entryX=0;entryY=0.5;entryDx=0;entryDy=0;fontFamily=Consolas;fontStyle=1;fontSize=18;labelBorderColor=none;textShadow=0;strokeWidth=1;" parent="1" source="hpfhYlzzf-C4YX28FUgR-38" target="hpfhYlzzf-C4YX28FUgR-43" edge="1">
          <mxGeometry relative="1" as="geometry" />
        </mxCell>
        <mxCell id="hpfhYlzzf-C4YX28FUgR-34" style="edgeStyle=none;rounded=0;orthogonalLoop=1;jettySize=auto;html=1;exitX=1;exitY=0.3333333333333333;exitDx=0;exitDy=0;exitPerimeter=0;entryX=0;entryY=0.5;entryDx=0;entryDy=0;fontFamily=Consolas;fontStyle=1;fontSize=18;labelBorderColor=none;textShadow=0;strokeWidth=1;" parent="1" source="hpfhYlzzf-C4YX28FUgR-38" target="hpfhYlzzf-C4YX28FUgR-50" edge="1">
          <mxGeometry relative="1" as="geometry" />
        </mxCell>
        <mxCell id="hpfhYlzzf-C4YX28FUgR-35" style="edgeStyle=none;rounded=0;orthogonalLoop=1;jettySize=auto;html=1;exitX=1;exitY=0.3333333333333333;exitDx=0;exitDy=0;exitPerimeter=0;entryX=0;entryY=0.5;entryDx=0;entryDy=0;fontFamily=Consolas;fontStyle=1;fontSize=18;labelBorderColor=none;textShadow=0;strokeWidth=1;" parent="1" source="hpfhYlzzf-C4YX28FUgR-38" target="hpfhYlzzf-C4YX28FUgR-54" edge="1">
          <mxGeometry relative="1" as="geometry" />
        </mxCell>
        <mxCell id="hpfhYlzzf-C4YX28FUgR-36" style="edgeStyle=none;rounded=0;orthogonalLoop=1;jettySize=auto;html=1;exitX=1;exitY=0.3333333333333333;exitDx=0;exitDy=0;exitPerimeter=0;entryX=0;entryY=0.5;entryDx=0;entryDy=0;fontFamily=Consolas;fontStyle=1;fontSize=18;labelBorderColor=none;textShadow=0;strokeWidth=1;" parent="1" source="hpfhYlzzf-C4YX28FUgR-38" target="hpfhYlzzf-C4YX28FUgR-55" edge="1">
          <mxGeometry relative="1" as="geometry" />
        </mxCell>
        <mxCell id="hpfhYlzzf-C4YX28FUgR-37" style="edgeStyle=none;rounded=0;orthogonalLoop=1;jettySize=auto;html=1;exitX=1;exitY=0.3333333333333333;exitDx=0;exitDy=0;exitPerimeter=0;entryX=0;entryY=0.5;entryDx=0;entryDy=0;fontFamily=Consolas;fontStyle=1;fontSize=18;labelBorderColor=none;textShadow=0;strokeWidth=1;" parent="1" source="hpfhYlzzf-C4YX28FUgR-38" target="hpfhYlzzf-C4YX28FUgR-58" edge="1">
          <mxGeometry relative="1" as="geometry" />
        </mxCell>
        <mxCell id="hpfhYlzzf-C4YX28FUgR-129" style="edgeStyle=none;rounded=0;orthogonalLoop=1;jettySize=auto;html=1;exitX=1;exitY=0.3333333333333333;exitDx=0;exitDy=0;exitPerimeter=0;entryX=0;entryY=0.5;entryDx=0;entryDy=0;" parent="1" source="hpfhYlzzf-C4YX28FUgR-38" target="hpfhYlzzf-C4YX28FUgR-122" edge="1">
          <mxGeometry relative="1" as="geometry" />
        </mxCell>
        <mxCell id="hpfhYlzzf-C4YX28FUgR-38" value="&lt;font style=&quot;font-size: 32px;&quot;&gt;Vendor&lt;/font&gt;" style="shape=umlActor;verticalLabelPosition=bottom;verticalAlign=top;html=1;fontFamily=Consolas;fontStyle=1;fontSize=18;whiteSpace=wrap;labelBorderColor=none;textShadow=0;strokeWidth=1;fillColor=#f5f5f5;strokeColor=#666666;gradientDirection=radial;gradientColor=#b3b3b3;" parent="1" vertex="1">
          <mxGeometry x="20" y="1670" width="130" height="210" as="geometry" />
        </mxCell>
        <mxCell id="hpfhYlzzf-C4YX28FUgR-40" style="edgeStyle=none;rounded=0;orthogonalLoop=1;jettySize=auto;html=1;exitX=1;exitY=0.5;exitDx=0;exitDy=0;entryX=0;entryY=0.5;entryDx=0;entryDy=0;fontFamily=Consolas;fontStyle=1;fontSize=18;labelBorderColor=none;textShadow=0;strokeWidth=1;" parent="1" source="hpfhYlzzf-C4YX28FUgR-43" target="hpfhYlzzf-C4YX28FUgR-44" edge="1">
          <mxGeometry relative="1" as="geometry" />
        </mxCell>
        <mxCell id="hpfhYlzzf-C4YX28FUgR-41" style="edgeStyle=none;rounded=0;orthogonalLoop=1;jettySize=auto;html=1;exitX=1;exitY=0.5;exitDx=0;exitDy=0;entryX=0;entryY=0.5;entryDx=0;entryDy=0;fontFamily=Consolas;fontStyle=1;fontSize=18;labelBorderColor=none;textShadow=0;strokeWidth=1;" parent="1" source="hpfhYlzzf-C4YX28FUgR-43" target="hpfhYlzzf-C4YX28FUgR-45" edge="1">
          <mxGeometry relative="1" as="geometry" />
        </mxCell>
        <mxCell id="hpfhYlzzf-C4YX28FUgR-42" style="edgeStyle=none;rounded=0;orthogonalLoop=1;jettySize=auto;html=1;exitX=1;exitY=0.5;exitDx=0;exitDy=0;entryX=0;entryY=0.5;entryDx=0;entryDy=0;fontFamily=Consolas;fontStyle=1;fontSize=18;labelBorderColor=none;textShadow=0;strokeWidth=1;" parent="1" source="hpfhYlzzf-C4YX28FUgR-43" target="hpfhYlzzf-C4YX28FUgR-46" edge="1">
          <mxGeometry relative="1" as="geometry" />
        </mxCell>
        <mxCell id="hpfhYlzzf-C4YX28FUgR-43" value="&lt;span style=&quot;font-size: 18px;&quot;&gt;&lt;span style=&quot;font-size: 18px;&quot;&gt;Profile&lt;br style=&quot;font-size: 18px;&quot;&gt;&lt;/span&gt;&lt;/span&gt;" style="ellipse;whiteSpace=wrap;html=1;fontFamily=Consolas;fontStyle=1;fontSize=18;labelBorderColor=none;textShadow=0;strokeWidth=1;fillColor=#f5f5f5;gradientColor=#b3b3b3;strokeColor=#666666;" parent="1" vertex="1">
          <mxGeometry x="640" y="1420" width="140" height="70" as="geometry" />
        </mxCell>
        <mxCell id="hpfhYlzzf-C4YX28FUgR-44" value="&lt;span style=&quot;font-size: 18px;&quot;&gt;&lt;span style=&quot;font-size: 18px;&quot;&gt;View&lt;/span&gt;&lt;/span&gt;" style="ellipse;whiteSpace=wrap;html=1;fontFamily=Consolas;fontStyle=1;fontSize=18;labelBorderColor=none;textShadow=0;strokeWidth=1;fillColor=#f5f5f5;gradientColor=#b3b3b3;strokeColor=#666666;" parent="1" vertex="1">
          <mxGeometry x="955" y="1330" width="140" height="70" as="geometry" />
        </mxCell>
        <mxCell id="hpfhYlzzf-C4YX28FUgR-45" value="&lt;span style=&quot;font-size: 18px;&quot;&gt;&lt;span style=&quot;font-size: 18px;&quot;&gt;Update&lt;/span&gt;&lt;/span&gt;" style="ellipse;whiteSpace=wrap;html=1;fontFamily=Consolas;fontStyle=1;fontSize=18;labelBorderColor=none;textShadow=0;strokeWidth=1;fillColor=#f5f5f5;gradientColor=#b3b3b3;strokeColor=#666666;" parent="1" vertex="1">
          <mxGeometry x="955" y="1410" width="140" height="70" as="geometry" />
        </mxCell>
        <mxCell id="hpfhYlzzf-C4YX28FUgR-46" value="&lt;span style=&quot;font-size: 18px;&quot;&gt;&lt;span style=&quot;font-size: 18px;&quot;&gt;Delete&lt;/span&gt;&lt;/span&gt;" style="ellipse;whiteSpace=wrap;html=1;fontFamily=Consolas;fontStyle=1;fontSize=18;labelBorderColor=none;textShadow=0;strokeWidth=1;fillColor=#f5f5f5;gradientColor=#b3b3b3;strokeColor=#666666;" parent="1" vertex="1">
          <mxGeometry x="955" y="1490" width="140" height="70" as="geometry" />
        </mxCell>
        <mxCell id="hpfhYlzzf-C4YX28FUgR-47" style="edgeStyle=none;rounded=0;orthogonalLoop=1;jettySize=auto;html=1;exitX=1;exitY=0.5;exitDx=0;exitDy=0;entryX=0;entryY=0.5;entryDx=0;entryDy=0;fontFamily=Consolas;fontStyle=1;fontSize=18;labelBorderColor=none;textShadow=0;strokeWidth=1;" parent="1" target="hpfhYlzzf-C4YX28FUgR-51" edge="1">
          <mxGeometry relative="1" as="geometry">
            <mxPoint x="780" y="1704.9999999999995" as="sourcePoint" />
          </mxGeometry>
        </mxCell>
        <mxCell id="hpfhYlzzf-C4YX28FUgR-48" style="edgeStyle=none;rounded=0;orthogonalLoop=1;jettySize=auto;html=1;exitX=1;exitY=0.5;exitDx=0;exitDy=0;entryX=0;entryY=0.5;entryDx=0;entryDy=0;fontFamily=Consolas;fontStyle=1;fontSize=18;labelBorderColor=none;textShadow=0;strokeWidth=1;" parent="1" target="hpfhYlzzf-C4YX28FUgR-52" edge="1">
          <mxGeometry relative="1" as="geometry">
            <mxPoint x="780" y="1704.9999999999995" as="sourcePoint" />
          </mxGeometry>
        </mxCell>
        <mxCell id="hpfhYlzzf-C4YX28FUgR-49" style="edgeStyle=none;rounded=0;orthogonalLoop=1;jettySize=auto;html=1;exitX=1;exitY=0.5;exitDx=0;exitDy=0;entryX=0;entryY=0.5;entryDx=0;entryDy=0;fontFamily=Consolas;fontStyle=1;fontSize=18;labelBorderColor=none;textShadow=0;strokeWidth=1;" parent="1" target="hpfhYlzzf-C4YX28FUgR-53" edge="1">
          <mxGeometry relative="1" as="geometry">
            <mxPoint x="780" y="1704.9999999999995" as="sourcePoint" />
          </mxGeometry>
        </mxCell>
        <mxCell id="hpfhYlzzf-C4YX28FUgR-50" value="&lt;span style=&quot;font-size: 18px;&quot;&gt;&lt;span style=&quot;font-size: 18px;&quot;&gt;Add&amp;nbsp;&lt;br style=&quot;font-size: 18px;&quot;&gt;Menu Items&lt;/span&gt;&lt;/span&gt;" style="ellipse;whiteSpace=wrap;html=1;fontFamily=Consolas;fontStyle=1;fontSize=18;labelBorderColor=none;textShadow=0;strokeWidth=1;fillColor=#f5f5f5;gradientColor=#b3b3b3;strokeColor=#666666;" parent="1" vertex="1">
          <mxGeometry x="640" y="1670" width="140" height="70" as="geometry" />
        </mxCell>
        <mxCell id="hpfhYlzzf-C4YX28FUgR-51" value="&lt;span style=&quot;font-size: 18px;&quot;&gt;&lt;span style=&quot;font-size: 18px;&quot;&gt;BreakFast&lt;/span&gt;&lt;/span&gt;" style="ellipse;whiteSpace=wrap;html=1;fontFamily=Consolas;fontStyle=1;fontSize=18;labelBorderColor=none;textShadow=0;strokeWidth=1;fillColor=#f5f5f5;gradientColor=#b3b3b3;strokeColor=#666666;" parent="1" vertex="1">
          <mxGeometry x="955" y="1590" width="140" height="70" as="geometry" />
        </mxCell>
        <mxCell id="hpfhYlzzf-C4YX28FUgR-52" value="&lt;span style=&quot;font-size: 18px;&quot;&gt;&lt;span style=&quot;font-size: 18px;&quot;&gt;Lunch&lt;/span&gt;&lt;/span&gt;" style="ellipse;whiteSpace=wrap;html=1;fontFamily=Consolas;fontStyle=1;fontSize=18;labelBorderColor=none;textShadow=0;strokeWidth=1;fillColor=#f5f5f5;gradientColor=#b3b3b3;strokeColor=#666666;" parent="1" vertex="1">
          <mxGeometry x="955" y="1670" width="140" height="70" as="geometry" />
        </mxCell>
        <mxCell id="hpfhYlzzf-C4YX28FUgR-53" value="&lt;span style=&quot;font-size: 18px;&quot;&gt;&lt;span style=&quot;font-size: 18px;&quot;&gt;Dinner&lt;/span&gt;&lt;/span&gt;" style="ellipse;whiteSpace=wrap;html=1;fontFamily=Consolas;fontStyle=1;fontSize=18;labelBorderColor=none;textShadow=0;strokeWidth=1;fillColor=#f5f5f5;gradientColor=#b3b3b3;strokeColor=#666666;" parent="1" vertex="1">
          <mxGeometry x="955" y="1750" width="140" height="70" as="geometry" />
        </mxCell>
        <mxCell id="hpfhYlzzf-C4YX28FUgR-54" value="&lt;span style=&quot;font-size: 18px;&quot;&gt;&lt;span style=&quot;font-size: 18px;&quot;&gt;Accept/&amp;nbsp;&lt;/span&gt;&lt;/span&gt;&lt;span style=&quot;font-size: 18px; background-color: initial;&quot;&gt;Reject&lt;/span&gt;&lt;div style=&quot;font-size: 18px;&quot;&gt;&lt;span style=&quot;font-size: 18px;&quot;&gt;&lt;span style=&quot;font-size: 18px;&quot;&gt;Orders&lt;/span&gt;&lt;/span&gt;&lt;/div&gt;" style="ellipse;whiteSpace=wrap;html=1;fontFamily=Consolas;fontStyle=1;fontSize=18;labelBorderColor=none;textShadow=0;strokeWidth=1;fillColor=#f5f5f5;gradientColor=#b3b3b3;strokeColor=#666666;" parent="1" vertex="1">
          <mxGeometry x="640" y="1830" width="140" height="70" as="geometry" />
        </mxCell>
        <mxCell id="hpfhYlzzf-C4YX28FUgR-55" value="&lt;span style=&quot;font-size: 18px;&quot;&gt;&lt;span style=&quot;font-size: 18px;&quot;&gt;Update&lt;/span&gt;&lt;/span&gt;&lt;div style=&quot;font-size: 18px;&quot;&gt;&lt;span style=&quot;font-size: 18px;&quot;&gt;&lt;span style=&quot;font-size: 18px;&quot;&gt;Order&lt;/span&gt;&lt;/span&gt;&lt;/div&gt;&lt;div style=&quot;font-size: 18px;&quot;&gt;&lt;span style=&quot;font-size: 18px;&quot;&gt;&lt;span style=&quot;font-size: 18px;&quot;&gt;Status&lt;/span&gt;&lt;/span&gt;&lt;/div&gt;" style="ellipse;whiteSpace=wrap;html=1;fontFamily=Consolas;fontStyle=1;fontSize=18;labelBorderColor=none;textShadow=0;strokeWidth=1;fillColor=#f5f5f5;gradientColor=#b3b3b3;strokeColor=#666666;" parent="1" vertex="1">
          <mxGeometry x="640" y="1965" width="140" height="70" as="geometry" />
        </mxCell>
        <mxCell id="hpfhYlzzf-C4YX28FUgR-56" value="&lt;span style=&quot;font-size: 18px;&quot;&gt;&lt;span style=&quot;font-size: 18px;&quot;&gt;Notification&lt;/span&gt;&lt;/span&gt;&lt;div style=&quot;font-size: 18px;&quot;&gt;&lt;span style=&quot;font-size: 18px;&quot;&gt;&lt;span style=&quot;font-size: 18px;&quot;&gt;to&lt;/span&gt;&lt;/span&gt;&lt;/div&gt;&lt;div style=&quot;font-size: 18px;&quot;&gt;&lt;span style=&quot;font-size: 18px;&quot;&gt;&lt;span style=&quot;font-size: 18px;&quot;&gt;delivery Person&lt;/span&gt;&lt;/span&gt;&lt;/div&gt;" style="ellipse;whiteSpace=wrap;html=1;fontFamily=Consolas;fontStyle=1;fontSize=18;labelBorderColor=none;textShadow=0;strokeWidth=1;fillColor=#f5f5f5;gradientColor=#b3b3b3;strokeColor=#666666;" parent="1" vertex="1">
          <mxGeometry x="925" y="1945" width="180" height="110" as="geometry" />
        </mxCell>
        <mxCell id="hpfhYlzzf-C4YX28FUgR-57" value="&lt;span style=&quot;font-size: 18px;&quot;&gt;&lt;font style=&quot;font-size: 18px;&quot;&gt;Prepared&lt;/font&gt;&lt;/span&gt;" style="endArrow=block;endSize=16;endFill=0;html=1;rounded=0;entryX=0;entryY=0.5;entryDx=0;entryDy=0;exitX=1;exitY=0.5;exitDx=0;exitDy=0;fontFamily=Consolas;fontStyle=1;fontSize=18;labelBorderColor=none;textShadow=0;strokeWidth=1;" parent="1" source="hpfhYlzzf-C4YX28FUgR-55" target="hpfhYlzzf-C4YX28FUgR-56" edge="1">
          <mxGeometry width="160" relative="1" as="geometry">
            <mxPoint x="630" y="2154.09" as="sourcePoint" />
            <mxPoint x="790" y="2154.09" as="targetPoint" />
          </mxGeometry>
        </mxCell>
        <mxCell id="hpfhYlzzf-C4YX28FUgR-58" value="&lt;span style=&quot;font-size: 18px;&quot;&gt;&lt;span style=&quot;font-size: 18px;&quot;&gt;View Reviews&lt;/span&gt;&lt;/span&gt;&lt;div style=&quot;font-size: 18px;&quot;&gt;&lt;span style=&quot;font-size: 18px;&quot;&gt;&lt;span style=&quot;font-size: 18px;&quot;&gt;and&lt;/span&gt;&lt;/span&gt;&lt;/div&gt;&lt;div style=&quot;font-size: 18px;&quot;&gt;&lt;span style=&quot;font-size: 18px;&quot;&gt;&lt;span style=&quot;font-size: 18px;&quot;&gt;Feedbacks&lt;/span&gt;&lt;/span&gt;&lt;/div&gt;" style="ellipse;whiteSpace=wrap;html=1;fontFamily=Consolas;fontStyle=1;fontSize=18;labelBorderColor=none;textShadow=0;strokeWidth=1;fillColor=#f5f5f5;gradientColor=#b3b3b3;strokeColor=#666666;" parent="1" vertex="1">
          <mxGeometry x="640" y="2090" width="140" height="70" as="geometry" />
        </mxCell>
        <mxCell id="hpfhYlzzf-C4YX28FUgR-59" value="&lt;span style=&quot;font-size: 18px;&quot;&gt;&lt;span style=&quot;font-size: 18px;&quot;&gt;Give Review&lt;/span&gt;&lt;/span&gt;&lt;div style=&quot;font-size: 18px;&quot;&gt;&lt;span style=&quot;font-size: 18px;&quot;&gt;&lt;span style=&quot;font-size: 18px;&quot;&gt;/Feedback/&lt;/span&gt;&lt;/span&gt;&lt;/div&gt;&lt;div style=&quot;font-size: 18px;&quot;&gt;&lt;span style=&quot;font-size: 18px;&quot;&gt;&lt;span style=&quot;font-size: 18px;&quot;&gt;Complaint&lt;/span&gt;&lt;/span&gt;&lt;/div&gt;" style="ellipse;whiteSpace=wrap;html=1;fontFamily=Consolas;fontStyle=1;fontSize=18;labelBorderColor=none;textShadow=0;strokeWidth=1;fillColor=#b1ddf0;strokeColor=#10739e;" parent="1" vertex="1">
          <mxGeometry x="630" y="890" width="140" height="110" as="geometry" />
        </mxCell>
        <mxCell id="hpfhYlzzf-C4YX28FUgR-60" style="edgeStyle=none;rounded=0;orthogonalLoop=1;jettySize=auto;html=1;exitX=0;exitY=0.3333333333333333;exitDx=0;exitDy=0;exitPerimeter=0;entryX=1;entryY=0.5;entryDx=0;entryDy=0;fontFamily=Consolas;fontStyle=1;fontSize=18;labelBorderColor=none;textShadow=0;strokeWidth=1;" parent="1" source="hpfhYlzzf-C4YX28FUgR-65" target="hpfhYlzzf-C4YX28FUgR-66" edge="1">
          <mxGeometry relative="1" as="geometry" />
        </mxCell>
        <mxCell id="hpfhYlzzf-C4YX28FUgR-61" style="edgeStyle=none;rounded=0;orthogonalLoop=1;jettySize=auto;html=1;exitX=0;exitY=0.3333333333333333;exitDx=0;exitDy=0;exitPerimeter=0;entryX=1;entryY=0.5;entryDx=0;entryDy=0;fontFamily=Consolas;fontStyle=1;fontSize=18;labelBorderColor=none;textShadow=0;strokeWidth=1;" parent="1" source="hpfhYlzzf-C4YX28FUgR-65" target="hpfhYlzzf-C4YX28FUgR-70" edge="1">
          <mxGeometry relative="1" as="geometry" />
        </mxCell>
        <mxCell id="hpfhYlzzf-C4YX28FUgR-62" style="edgeStyle=none;rounded=0;orthogonalLoop=1;jettySize=auto;html=1;exitX=0;exitY=0.3333333333333333;exitDx=0;exitDy=0;exitPerimeter=0;entryX=1;entryY=0.5;entryDx=0;entryDy=0;fontFamily=Consolas;fontStyle=1;fontSize=18;labelBorderColor=none;textShadow=0;strokeWidth=1;" parent="1" source="hpfhYlzzf-C4YX28FUgR-65" target="hpfhYlzzf-C4YX28FUgR-74" edge="1">
          <mxGeometry relative="1" as="geometry" />
        </mxCell>
        <mxCell id="hpfhYlzzf-C4YX28FUgR-63" style="edgeStyle=none;rounded=0;orthogonalLoop=1;jettySize=auto;html=1;exitX=0;exitY=0.3333333333333333;exitDx=0;exitDy=0;exitPerimeter=0;entryX=1;entryY=0.5;entryDx=0;entryDy=0;fontFamily=Consolas;fontStyle=1;fontSize=18;labelBorderColor=none;textShadow=0;strokeWidth=1;" parent="1" source="hpfhYlzzf-C4YX28FUgR-65" target="hpfhYlzzf-C4YX28FUgR-75" edge="1">
          <mxGeometry relative="1" as="geometry" />
        </mxCell>
        <mxCell id="hpfhYlzzf-C4YX28FUgR-64" style="edgeStyle=none;rounded=0;orthogonalLoop=1;jettySize=auto;html=1;exitX=0;exitY=0.3333333333333333;exitDx=0;exitDy=0;exitPerimeter=0;entryX=1;entryY=0.5;entryDx=0;entryDy=0;fontFamily=Consolas;fontStyle=1;fontSize=18;labelBorderColor=none;textShadow=0;strokeWidth=1;" parent="1" source="hpfhYlzzf-C4YX28FUgR-65" target="hpfhYlzzf-C4YX28FUgR-79" edge="1">
          <mxGeometry relative="1" as="geometry" />
        </mxCell>
        <mxCell id="hpfhYlzzf-C4YX28FUgR-121" style="edgeStyle=none;rounded=0;orthogonalLoop=1;jettySize=auto;html=1;exitX=0;exitY=0.3333333333333333;exitDx=0;exitDy=0;exitPerimeter=0;entryX=1;entryY=0.5;entryDx=0;entryDy=0;strokeWidth=1;fontSize=18;fontStyle=1" parent="1" source="hpfhYlzzf-C4YX28FUgR-65" target="hpfhYlzzf-C4YX28FUgR-120" edge="1">
          <mxGeometry relative="1" as="geometry" />
        </mxCell>
        <mxCell id="hpfhYlzzf-C4YX28FUgR-65" value="&lt;font style=&quot;font-size: 36px;&quot;&gt;Admin&lt;/font&gt;" style="shape=umlActor;verticalLabelPosition=bottom;verticalAlign=top;html=1;fontFamily=Consolas;fontStyle=1;fontSize=18;whiteSpace=wrap;labelBorderColor=none;textShadow=0;fillColor=#f8cecc;strokeColor=#b85450;strokeWidth=1;gradientColor=#ea6b66;" parent="1" vertex="1">
          <mxGeometry x="2370" y="210" width="130" height="210" as="geometry" />
        </mxCell>
        <mxCell id="hpfhYlzzf-C4YX28FUgR-66" value="&lt;span style=&quot;font-size: 18px;&quot;&gt;&lt;span style=&quot;font-size: 18px;&quot;&gt;Sign-In&lt;/span&gt;&lt;/span&gt;" style="ellipse;whiteSpace=wrap;html=1;fontFamily=Consolas;fontStyle=1;fontSize=18;labelBorderColor=none;textShadow=0;strokeWidth=1;fillColor=#f8cecc;strokeColor=#b85450;gradientColor=#ea6b66;" parent="1" vertex="1">
          <mxGeometry x="1790" y="-150" width="140" height="70" as="geometry" />
        </mxCell>
        <mxCell id="hpfhYlzzf-C4YX28FUgR-67" style="edgeStyle=none;rounded=0;orthogonalLoop=1;jettySize=auto;html=1;exitX=0;exitY=0.5;exitDx=0;exitDy=0;entryX=1;entryY=0.5;entryDx=0;entryDy=0;fontFamily=Consolas;fontStyle=1;fontSize=18;labelBorderColor=none;textShadow=0;strokeWidth=1;" parent="1" target="hpfhYlzzf-C4YX28FUgR-71" edge="1">
          <mxGeometry relative="1" as="geometry">
            <mxPoint x="1790" y="65" as="sourcePoint" />
          </mxGeometry>
        </mxCell>
        <mxCell id="hpfhYlzzf-C4YX28FUgR-68" style="edgeStyle=none;rounded=0;orthogonalLoop=1;jettySize=auto;html=1;exitX=0;exitY=0.5;exitDx=0;exitDy=0;entryX=1;entryY=0.5;entryDx=0;entryDy=0;fontFamily=Consolas;fontStyle=1;fontSize=18;labelBorderColor=none;textShadow=0;strokeWidth=1;" parent="1" target="hpfhYlzzf-C4YX28FUgR-72" edge="1">
          <mxGeometry relative="1" as="geometry">
            <mxPoint x="1790" y="65" as="sourcePoint" />
          </mxGeometry>
        </mxCell>
        <mxCell id="hpfhYlzzf-C4YX28FUgR-69" style="edgeStyle=none;rounded=0;orthogonalLoop=1;jettySize=auto;html=1;exitX=0;exitY=0.5;exitDx=0;exitDy=0;entryX=1;entryY=0.5;entryDx=0;entryDy=0;fontFamily=Consolas;fontStyle=1;fontSize=18;labelBorderColor=none;textShadow=0;strokeWidth=1;" parent="1" target="hpfhYlzzf-C4YX28FUgR-73" edge="1">
          <mxGeometry relative="1" as="geometry">
            <mxPoint x="1790" y="65" as="sourcePoint" />
          </mxGeometry>
        </mxCell>
        <mxCell id="hpfhYlzzf-C4YX28FUgR-70" value="&lt;span style=&quot;font-size: 18px;&quot;&gt;&lt;span style=&quot;font-size: 18px;&quot;&gt;View&amp;nbsp;&lt;/span&gt;&lt;/span&gt;&lt;div style=&quot;font-size: 18px;&quot;&gt;&lt;span style=&quot;font-size: 18px;&quot;&gt;&lt;span style=&quot;font-size: 18px;&quot;&gt;Statistics&lt;/span&gt;&lt;/span&gt;&lt;/div&gt;" style="ellipse;whiteSpace=wrap;html=1;fontFamily=Consolas;fontStyle=1;fontSize=18;labelBorderColor=none;textShadow=0;strokeWidth=1;fillColor=#f8cecc;strokeColor=#b85450;gradientColor=#ea6b66;" parent="1" vertex="1">
          <mxGeometry x="1790" y="35" width="140" height="70" as="geometry" />
        </mxCell>
        <mxCell id="hpfhYlzzf-C4YX28FUgR-71" value="&lt;span style=&quot;font-size: 18px;&quot;&gt;&lt;span style=&quot;font-size: 18px;&quot;&gt;Customers&lt;/span&gt;&lt;/span&gt;" style="ellipse;whiteSpace=wrap;html=1;fontFamily=Consolas;fontStyle=1;fontSize=18;labelBorderColor=none;textShadow=0;strokeWidth=1;fillColor=#f8cecc;strokeColor=#b85450;gradientColor=#ea6b66;" parent="1" vertex="1">
          <mxGeometry x="1490" y="-50" width="140" height="70" as="geometry" />
        </mxCell>
        <mxCell id="hpfhYlzzf-C4YX28FUgR-72" value="&lt;span style=&quot;font-size: 18px;&quot;&gt;&lt;span style=&quot;font-size: 18px;&quot;&gt;Vendors&lt;/span&gt;&lt;/span&gt;" style="ellipse;whiteSpace=wrap;html=1;fontFamily=Consolas;fontStyle=1;fontSize=18;labelBorderColor=none;textShadow=0;strokeWidth=1;fillColor=#f8cecc;strokeColor=#b85450;gradientColor=#ea6b66;" parent="1" vertex="1">
          <mxGeometry x="1490" y="30" width="140" height="70" as="geometry" />
        </mxCell>
        <mxCell id="hpfhYlzzf-C4YX28FUgR-73" value="&lt;span style=&quot;font-size: 18px;&quot;&gt;&lt;span style=&quot;font-size: 18px;&quot;&gt;Delivery&lt;/span&gt;&lt;/span&gt;&lt;div style=&quot;font-size: 18px;&quot;&gt;&lt;span style=&quot;font-size: 18px;&quot;&gt;&lt;span style=&quot;font-size: 18px;&quot;&gt;Persons&lt;/span&gt;&lt;/span&gt;&lt;/div&gt;" style="ellipse;whiteSpace=wrap;html=1;fontFamily=Consolas;fontStyle=1;fontSize=18;labelBorderColor=none;textShadow=0;strokeWidth=1;fillColor=#f8cecc;strokeColor=#b85450;gradientColor=#ea6b66;" parent="1" vertex="1">
          <mxGeometry x="1490" y="120" width="140" height="70" as="geometry" />
        </mxCell>
        <mxCell id="hpfhYlzzf-C4YX28FUgR-74" value="&lt;span style=&quot;font-size: 18px;&quot;&gt;&lt;span style=&quot;font-size: 18px;&quot;&gt;Manage&lt;/span&gt;&lt;/span&gt;&lt;div style=&quot;font-size: 18px;&quot;&gt;&lt;span style=&quot;font-size: 18px;&quot;&gt;&lt;span style=&quot;font-size: 18px;&quot;&gt;Users&amp;nbsp;&lt;/span&gt;&lt;/span&gt;&lt;/div&gt;&lt;div style=&quot;font-size: 18px;&quot;&gt;&lt;span style=&quot;font-size: 18px;&quot;&gt;&lt;span style=&quot;font-size: 18px;&quot;&gt;Account&lt;/span&gt;&lt;/span&gt;&lt;/div&gt;" style="ellipse;whiteSpace=wrap;html=1;fontFamily=Consolas;fontStyle=1;fontSize=18;labelBorderColor=none;textShadow=0;strokeWidth=1;fillColor=#f8cecc;strokeColor=#b85450;gradientColor=#ea6b66;" parent="1" vertex="1">
          <mxGeometry x="1790" y="210" width="140" height="70" as="geometry" />
        </mxCell>
        <mxCell id="hpfhYlzzf-C4YX28FUgR-75" value="&lt;span style=&quot;font-size: 18px;&quot;&gt;&lt;span style=&quot;font-size: 18px;&quot;&gt;View Orders&lt;/span&gt;&lt;/span&gt;&lt;div style=&quot;font-size: 18px;&quot;&gt;&lt;span style=&quot;font-size: 18px;&quot;&gt;&lt;span style=&quot;font-size: 18px;&quot;&gt;in&lt;/span&gt;&lt;/span&gt;&lt;/div&gt;&lt;div style=&quot;font-size: 18px;&quot;&gt;&lt;span style=&quot;font-size: 18px;&quot;&gt;&lt;span style=&quot;font-size: 18px;&quot;&gt;Pipeline&lt;/span&gt;&lt;/span&gt;&lt;/div&gt;" style="ellipse;whiteSpace=wrap;html=1;fontFamily=Consolas;fontStyle=1;fontSize=18;labelBorderColor=none;textShadow=0;strokeWidth=1;fillColor=#f8cecc;strokeColor=#b85450;gradientColor=#ea6b66;" parent="1" vertex="1">
          <mxGeometry x="1790" y="590" width="140" height="90" as="geometry" />
        </mxCell>
        <mxCell id="hpfhYlzzf-C4YX28FUgR-76" style="edgeStyle=none;rounded=0;orthogonalLoop=1;jettySize=auto;html=1;exitX=0;exitY=0.5;exitDx=0;exitDy=0;entryX=1;entryY=0.5;entryDx=0;entryDy=0;fontFamily=Consolas;fontStyle=1;fontSize=18;labelBorderColor=none;textShadow=0;strokeWidth=1;" parent="1" source="hpfhYlzzf-C4YX28FUgR-79" target="hpfhYlzzf-C4YX28FUgR-80" edge="1">
          <mxGeometry relative="1" as="geometry" />
        </mxCell>
        <mxCell id="hpfhYlzzf-C4YX28FUgR-77" style="edgeStyle=none;rounded=0;orthogonalLoop=1;jettySize=auto;html=1;exitX=0;exitY=0.5;exitDx=0;exitDy=0;fontFamily=Consolas;fontStyle=1;fontSize=18;labelBorderColor=none;textShadow=0;strokeWidth=1;" parent="1" source="hpfhYlzzf-C4YX28FUgR-79" target="hpfhYlzzf-C4YX28FUgR-81" edge="1">
          <mxGeometry relative="1" as="geometry" />
        </mxCell>
        <mxCell id="hpfhYlzzf-C4YX28FUgR-78" style="edgeStyle=none;rounded=0;orthogonalLoop=1;jettySize=auto;html=1;exitX=0;exitY=0.5;exitDx=0;exitDy=0;entryX=1;entryY=0.5;entryDx=0;entryDy=0;fontFamily=Consolas;fontStyle=1;fontSize=18;labelBorderColor=none;textShadow=0;strokeWidth=1;" parent="1" source="hpfhYlzzf-C4YX28FUgR-79" target="hpfhYlzzf-C4YX28FUgR-82" edge="1">
          <mxGeometry relative="1" as="geometry" />
        </mxCell>
        <mxCell id="hpfhYlzzf-C4YX28FUgR-79" value="&lt;span style=&quot;font-size: 18px;&quot;&gt;&lt;span style=&quot;font-size: 18px;&quot;&gt;View/&amp;nbsp;&lt;/span&gt;&lt;/span&gt;&lt;div style=&quot;font-size: 18px;&quot;&gt;&lt;span style=&quot;font-size: 18px;&quot;&gt;&lt;span style=&quot;font-size: 18px;&quot;&gt;Response to&lt;/span&gt;&lt;/span&gt;&lt;/div&gt;" style="ellipse;whiteSpace=wrap;html=1;fontFamily=Consolas;fontStyle=1;fontSize=18;labelBorderColor=none;textShadow=0;strokeWidth=1;fillColor=#f8cecc;strokeColor=#b85450;gradientColor=#ea6b66;" parent="1" vertex="1">
          <mxGeometry x="1790" y="390" width="140" height="70" as="geometry" />
        </mxCell>
        <mxCell id="hpfhYlzzf-C4YX28FUgR-80" value="&lt;span style=&quot;font-size: 18px;&quot;&gt;&lt;span style=&quot;font-size: 18px;&quot;&gt;Reviews&lt;/span&gt;&lt;/span&gt;" style="ellipse;whiteSpace=wrap;html=1;fontFamily=Consolas;fontStyle=1;fontSize=18;labelBorderColor=none;textShadow=0;strokeWidth=1;fillColor=#f8cecc;strokeColor=#b85450;gradientColor=#ea6b66;" parent="1" vertex="1">
          <mxGeometry x="1490" y="310" width="140" height="70" as="geometry" />
        </mxCell>
        <mxCell id="hpfhYlzzf-C4YX28FUgR-81" value="&lt;span style=&quot;font-size: 18px;&quot;&gt;&lt;span style=&quot;font-size: 18px;&quot;&gt;Complaints&lt;/span&gt;&lt;/span&gt;" style="ellipse;whiteSpace=wrap;html=1;fontFamily=Consolas;fontStyle=1;fontSize=18;labelBorderColor=none;textShadow=0;strokeWidth=1;fillColor=#f8cecc;strokeColor=#b85450;gradientColor=#ea6b66;" parent="1" vertex="1">
          <mxGeometry x="1490" y="400" width="140" height="70" as="geometry" />
        </mxCell>
        <mxCell id="hpfhYlzzf-C4YX28FUgR-82" value="&lt;span style=&quot;font-size: 18px;&quot;&gt;&lt;span style=&quot;font-size: 18px;&quot;&gt;FeedBacks&lt;/span&gt;&lt;/span&gt;" style="ellipse;whiteSpace=wrap;html=1;fontFamily=Consolas;fontStyle=1;fontSize=18;labelBorderColor=none;textShadow=0;strokeWidth=1;fillColor=#f8cecc;strokeColor=#b85450;gradientColor=#ea6b66;" parent="1" vertex="1">
          <mxGeometry x="1490" y="480" width="140" height="70" as="geometry" />
        </mxCell>
        <mxCell id="hpfhYlzzf-C4YX28FUgR-83" style="edgeStyle=none;rounded=0;orthogonalLoop=1;jettySize=auto;html=1;exitX=0;exitY=0.3333333333333333;exitDx=0;exitDy=0;exitPerimeter=0;entryX=1;entryY=0.5;entryDx=0;entryDy=0;fontFamily=Consolas;fontStyle=1;fontSize=18;labelBorderColor=none;textShadow=0;strokeWidth=1;" parent="1" source="hpfhYlzzf-C4YX28FUgR-87" target="hpfhYlzzf-C4YX28FUgR-92" edge="1">
          <mxGeometry relative="1" as="geometry" />
        </mxCell>
        <mxCell id="hpfhYlzzf-C4YX28FUgR-85" style="edgeStyle=none;rounded=0;orthogonalLoop=1;jettySize=auto;html=1;exitX=0;exitY=0.3333333333333333;exitDx=0;exitDy=0;exitPerimeter=0;entryX=1;entryY=0.5;entryDx=0;entryDy=0;fontFamily=Consolas;fontStyle=1;fontSize=18;labelBorderColor=none;textShadow=0;strokeWidth=1;" parent="1" source="hpfhYlzzf-C4YX28FUgR-87" target="hpfhYlzzf-C4YX28FUgR-101" edge="1">
          <mxGeometry relative="1" as="geometry" />
        </mxCell>
        <mxCell id="hpfhYlzzf-C4YX28FUgR-86" style="edgeStyle=none;rounded=0;orthogonalLoop=1;jettySize=auto;html=1;exitX=0;exitY=0.3333333333333333;exitDx=0;exitDy=0;exitPerimeter=0;entryX=1;entryY=0.5;entryDx=0;entryDy=0;fontFamily=Consolas;fontStyle=1;fontSize=18;labelBorderColor=none;textShadow=0;strokeWidth=1;" parent="1" source="hpfhYlzzf-C4YX28FUgR-87" target="hpfhYlzzf-C4YX28FUgR-104" edge="1">
          <mxGeometry relative="1" as="geometry" />
        </mxCell>
        <mxCell id="hpfhYlzzf-C4YX28FUgR-141" style="edgeStyle=none;rounded=0;orthogonalLoop=1;jettySize=auto;html=1;exitX=0;exitY=0.3333333333333333;exitDx=0;exitDy=0;exitPerimeter=0;entryX=1;entryY=0.5;entryDx=0;entryDy=0;" parent="1" source="hpfhYlzzf-C4YX28FUgR-87" target="hpfhYlzzf-C4YX28FUgR-130" edge="1">
          <mxGeometry relative="1" as="geometry" />
        </mxCell>
        <mxCell id="hpfhYlzzf-C4YX28FUgR-87" value="&lt;font style=&quot;font-size: 27px;&quot;&gt;Delivery&lt;/font&gt;&lt;div style=&quot;font-size: 27px;&quot;&gt;&lt;font style=&quot;font-size: 27px;&quot;&gt;Person&lt;/font&gt;&lt;/div&gt;" style="shape=umlActor;verticalLabelPosition=bottom;verticalAlign=top;html=1;fontFamily=Consolas;fontStyle=1;fontSize=18;whiteSpace=wrap;labelBorderColor=none;textShadow=0;strokeWidth=1;fillColor=#d5e8d4;gradientColor=#97d077;strokeColor=#82b366;" parent="1" vertex="1">
          <mxGeometry x="2370" y="1670" width="130" height="210" as="geometry" />
        </mxCell>
        <mxCell id="hpfhYlzzf-C4YX28FUgR-89" style="edgeStyle=none;rounded=0;orthogonalLoop=1;jettySize=auto;html=1;exitX=1;exitY=0.5;exitDx=0;exitDy=0;entryX=0;entryY=0.5;entryDx=0;entryDy=0;fontFamily=Consolas;fontStyle=1;fontSize=18;labelBorderColor=none;textShadow=0;strokeWidth=1;" parent="1" source="hpfhYlzzf-C4YX28FUgR-92" target="hpfhYlzzf-C4YX28FUgR-93" edge="1">
          <mxGeometry relative="1" as="geometry" />
        </mxCell>
        <mxCell id="hpfhYlzzf-C4YX28FUgR-90" style="edgeStyle=none;rounded=0;orthogonalLoop=1;jettySize=auto;html=1;exitX=1;exitY=0.5;exitDx=0;exitDy=0;entryX=0;entryY=0.5;entryDx=0;entryDy=0;fontFamily=Consolas;fontStyle=1;fontSize=18;labelBorderColor=none;textShadow=0;strokeWidth=1;" parent="1" source="hpfhYlzzf-C4YX28FUgR-92" target="hpfhYlzzf-C4YX28FUgR-94" edge="1">
          <mxGeometry relative="1" as="geometry" />
        </mxCell>
        <mxCell id="hpfhYlzzf-C4YX28FUgR-91" style="edgeStyle=none;rounded=0;orthogonalLoop=1;jettySize=auto;html=1;exitX=1;exitY=0.5;exitDx=0;exitDy=0;entryX=0;entryY=0.5;entryDx=0;entryDy=0;fontFamily=Consolas;fontStyle=1;fontSize=18;labelBorderColor=none;textShadow=0;strokeWidth=1;" parent="1" source="hpfhYlzzf-C4YX28FUgR-92" target="hpfhYlzzf-C4YX28FUgR-95" edge="1">
          <mxGeometry relative="1" as="geometry" />
        </mxCell>
        <mxCell id="hpfhYlzzf-C4YX28FUgR-92" value="&lt;span style=&quot;font-size: 18px;&quot;&gt;&lt;span style=&quot;font-size: 18px;&quot;&gt;Profile&lt;br style=&quot;font-size: 18px;&quot;&gt;&lt;/span&gt;&lt;/span&gt;" style="ellipse;whiteSpace=wrap;html=1;fontFamily=Consolas;fontStyle=1;fontSize=18;labelBorderColor=none;textShadow=0;strokeWidth=1;fillColor=#d5e8d4;gradientColor=#97d077;strokeColor=#82b366;" parent="1" vertex="1">
          <mxGeometry x="1797.5" y="1432.5" width="140" height="70" as="geometry" />
        </mxCell>
        <mxCell id="hpfhYlzzf-C4YX28FUgR-93" value="&lt;span style=&quot;font-size: 18px;&quot;&gt;&lt;span style=&quot;font-size: 18px;&quot;&gt;View&lt;/span&gt;&lt;/span&gt;" style="ellipse;whiteSpace=wrap;html=1;fontFamily=Consolas;fontStyle=1;fontSize=18;labelBorderColor=none;textShadow=0;strokeWidth=1;fillColor=#d5e8d4;gradientColor=#97d077;strokeColor=#82b366;" parent="1" vertex="1">
          <mxGeometry x="1492.5" y="1380" width="140" height="70" as="geometry" />
        </mxCell>
        <mxCell id="hpfhYlzzf-C4YX28FUgR-94" value="&lt;span style=&quot;font-size: 18px;&quot;&gt;&lt;span style=&quot;font-size: 18px;&quot;&gt;Update&lt;/span&gt;&lt;/span&gt;" style="ellipse;whiteSpace=wrap;html=1;fontFamily=Consolas;fontStyle=1;fontSize=18;labelBorderColor=none;textShadow=0;strokeWidth=1;fillColor=#d5e8d4;gradientColor=#97d077;strokeColor=#82b366;" parent="1" vertex="1">
          <mxGeometry x="1492.5" y="1480" width="140" height="70" as="geometry" />
        </mxCell>
        <mxCell id="hpfhYlzzf-C4YX28FUgR-95" value="&lt;span style=&quot;font-size: 18px;&quot;&gt;&lt;span style=&quot;font-size: 18px;&quot;&gt;Delete&lt;/span&gt;&lt;/span&gt;" style="ellipse;whiteSpace=wrap;html=1;fontFamily=Consolas;fontStyle=1;fontSize=18;labelBorderColor=none;textShadow=0;strokeWidth=1;fillColor=#d5e8d4;gradientColor=#97d077;strokeColor=#82b366;" parent="1" vertex="1">
          <mxGeometry x="1492.5" y="1590" width="140" height="70" as="geometry" />
        </mxCell>
        <mxCell id="hpfhYlzzf-C4YX28FUgR-96" style="edgeStyle=none;rounded=0;orthogonalLoop=1;jettySize=auto;html=1;exitX=1;exitY=0.5;exitDx=0;exitDy=0;entryX=0;entryY=0.5;entryDx=0;entryDy=0;fontFamily=Consolas;fontStyle=1;fontSize=18;labelBorderColor=none;textShadow=0;strokeWidth=1;" parent="1" source="hpfhYlzzf-C4YX28FUgR-98" target="hpfhYlzzf-C4YX28FUgR-99" edge="1">
          <mxGeometry relative="1" as="geometry" />
        </mxCell>
        <mxCell id="hpfhYlzzf-C4YX28FUgR-97" style="edgeStyle=none;rounded=0;orthogonalLoop=1;jettySize=auto;html=1;exitX=1;exitY=0.5;exitDx=0;exitDy=0;entryX=0;entryY=0.5;entryDx=0;entryDy=0;fontFamily=Consolas;fontStyle=1;fontSize=18;labelBorderColor=none;textShadow=0;strokeWidth=1;" parent="1" source="hpfhYlzzf-C4YX28FUgR-98" target="hpfhYlzzf-C4YX28FUgR-100" edge="1">
          <mxGeometry relative="1" as="geometry" />
        </mxCell>
        <mxCell id="hpfhYlzzf-C4YX28FUgR-98" value="&lt;span style=&quot;font-size: 18px;&quot;&gt;&lt;span style=&quot;font-size: 18px;&quot;&gt;View Order&lt;/span&gt;&lt;/span&gt;" style="ellipse;whiteSpace=wrap;html=1;fontFamily=Consolas;fontStyle=1;fontSize=18;labelBorderColor=none;textShadow=0;strokeWidth=1;fillColor=#d5e8d4;gradientColor=#97d077;strokeColor=#82b366;" parent="1" vertex="1">
          <mxGeometry x="1797.5" y="1712.5" width="140" height="70" as="geometry" />
        </mxCell>
        <mxCell id="hpfhYlzzf-C4YX28FUgR-99" value="&lt;span style=&quot;font-size: 18px;&quot;&gt;&lt;span style=&quot;font-size: 18px;&quot;&gt;Available&lt;/span&gt;&lt;/span&gt;" style="ellipse;whiteSpace=wrap;html=1;fontFamily=Consolas;fontStyle=1;fontSize=18;labelBorderColor=none;textShadow=0;strokeWidth=1;fillColor=#d5e8d4;gradientColor=#97d077;strokeColor=#82b366;" parent="1" vertex="1">
          <mxGeometry x="1492.5" y="1690" width="140" height="70" as="geometry" />
        </mxCell>
        <mxCell id="hpfhYlzzf-C4YX28FUgR-100" value="&lt;span style=&quot;font-size: 18px;&quot;&gt;&lt;span style=&quot;font-size: 18px;&quot;&gt;Assigned&lt;/span&gt;&lt;/span&gt;" style="ellipse;whiteSpace=wrap;html=1;fontFamily=Consolas;fontStyle=1;fontSize=18;labelBorderColor=none;textShadow=0;strokeWidth=1;fillColor=#d5e8d4;gradientColor=#97d077;strokeColor=#82b366;" parent="1" vertex="1">
          <mxGeometry x="1492.5" y="1790" width="140" height="70" as="geometry" />
        </mxCell>
        <mxCell id="hpfhYlzzf-C4YX28FUgR-101" value="&lt;font style=&quot;font-size: 18px;&quot;&gt;Deliver Order&lt;/font&gt;&lt;div style=&quot;font-size: 18px;&quot;&gt;&lt;font style=&quot;font-size: 18px;&quot;&gt;to&lt;/font&gt;&lt;/div&gt;&lt;div style=&quot;font-size: 18px;&quot;&gt;&lt;font style=&quot;font-size: 18px;&quot;&gt;Customer&lt;/font&gt;&lt;/div&gt;" style="ellipse;whiteSpace=wrap;html=1;fontFamily=Consolas;fontStyle=1;fontSize=18;labelBorderColor=none;textShadow=0;strokeWidth=1;fillColor=#d5e8d4;gradientColor=#97d077;strokeColor=#82b366;" parent="1" vertex="1">
          <mxGeometry x="1787.5" y="1850" width="150" height="100" as="geometry" />
        </mxCell>
        <mxCell id="hpfhYlzzf-C4YX28FUgR-102" style="edgeStyle=none;rounded=0;orthogonalLoop=1;jettySize=auto;html=1;exitX=1;exitY=0.5;exitDx=0;exitDy=0;entryX=0;entryY=0.5;entryDx=0;entryDy=0;fontFamily=Consolas;fontStyle=1;fontSize=18;labelBorderColor=none;textShadow=0;strokeWidth=1;" parent="1" source="hpfhYlzzf-C4YX28FUgR-104" target="hpfhYlzzf-C4YX28FUgR-105" edge="1">
          <mxGeometry relative="1" as="geometry" />
        </mxCell>
        <mxCell id="hpfhYlzzf-C4YX28FUgR-103" style="edgeStyle=none;rounded=0;orthogonalLoop=1;jettySize=auto;html=1;exitX=1;exitY=0.5;exitDx=0;exitDy=0;entryX=0;entryY=1;entryDx=0;entryDy=0;fontFamily=Consolas;fontStyle=1;fontSize=18;labelBorderColor=none;textShadow=0;strokeWidth=1;" parent="1" source="hpfhYlzzf-C4YX28FUgR-104" target="hpfhYlzzf-C4YX28FUgR-106" edge="1">
          <mxGeometry relative="1" as="geometry">
            <mxPoint x="1622.5" y="2117.5" as="targetPoint" />
          </mxGeometry>
        </mxCell>
        <mxCell id="hpfhYlzzf-C4YX28FUgR-104" value="&lt;span style=&quot;font-size: 18px;&quot;&gt;&lt;span style=&quot;font-size: 18px;&quot;&gt;Payment&lt;/span&gt;&lt;/span&gt;" style="ellipse;whiteSpace=wrap;html=1;fontFamily=Consolas;fontStyle=1;fontSize=18;labelBorderColor=none;textShadow=0;strokeWidth=1;fillColor=#d5e8d4;gradientColor=#97d077;strokeColor=#82b366;" parent="1" vertex="1">
          <mxGeometry x="1797.5" y="2035" width="140" height="70" as="geometry" />
        </mxCell>
        <mxCell id="hpfhYlzzf-C4YX28FUgR-105" value="&lt;span style=&quot;font-size: 18px;&quot;&gt;&lt;span style=&quot;font-size: 18px;&quot;&gt;Collect&amp;nbsp;&lt;/span&gt;&lt;/span&gt;&lt;div style=&quot;font-size: 18px;&quot;&gt;&lt;span style=&quot;font-size: 18px;&quot;&gt;&lt;span style=&quot;font-size: 18px;&quot;&gt;from&lt;/span&gt;&lt;/span&gt;&lt;/div&gt;&lt;div style=&quot;font-size: 18px;&quot;&gt;&lt;span style=&quot;font-size: 18px;&quot;&gt;&lt;span style=&quot;font-size: 18px;&quot;&gt;Customer&lt;/span&gt;&lt;/span&gt;&lt;/div&gt;" style="ellipse;whiteSpace=wrap;html=1;fontFamily=Consolas;fontStyle=1;fontSize=18;labelBorderColor=none;textShadow=0;strokeWidth=1;fillColor=#d5e8d4;gradientColor=#97d077;strokeColor=#82b366;" parent="1" vertex="1">
          <mxGeometry x="1492.5" y="1965" width="140" height="70" as="geometry" />
        </mxCell>
        <mxCell id="hpfhYlzzf-C4YX28FUgR-106" value="&lt;span style=&quot;font-size: 18px;&quot;&gt;&lt;span style=&quot;font-size: 18px;&quot;&gt;Confirm Status&lt;/span&gt;&lt;/span&gt;" style="ellipse;whiteSpace=wrap;html=1;fontFamily=Consolas;fontStyle=1;fontSize=18;labelBorderColor=none;textShadow=0;strokeWidth=1;fillColor=#d5e8d4;gradientColor=#97d077;strokeColor=#82b366;" parent="1" vertex="1">
          <mxGeometry x="1492.5" y="2100" width="140" height="70" as="geometry" />
        </mxCell>
        <mxCell id="hpfhYlzzf-C4YX28FUgR-107" value="&lt;span style=&quot;font-size: 18px;&quot;&gt;Order&lt;/span&gt;&lt;div style=&quot;font-size: 18px;&quot;&gt;&lt;span style=&quot;font-size: 18px;&quot;&gt;Notification&lt;/span&gt;&lt;/div&gt;" style="endArrow=block;endSize=16;endFill=0;html=1;rounded=0;entryX=1;entryY=0.5;entryDx=0;entryDy=0;fontFamily=Consolas;fontStyle=1;fontSize=18;labelBorderColor=none;textShadow=0;exitX=0;exitY=0.3333333333333333;exitDx=0;exitDy=0;exitPerimeter=0;strokeWidth=1;" parent="1" source="hpfhYlzzf-C4YX28FUgR-87" target="hpfhYlzzf-C4YX28FUgR-98" edge="1">
          <mxGeometry width="160" relative="1" as="geometry">
            <mxPoint x="2262.5" y="1756.5900000000001" as="sourcePoint" />
            <mxPoint x="2042.5" y="1756.5" as="targetPoint" />
          </mxGeometry>
        </mxCell>
        <mxCell id="hpfhYlzzf-C4YX28FUgR-108" style="edgeStyle=none;rounded=0;orthogonalLoop=1;jettySize=auto;html=1;exitX=1;exitY=0.5;exitDx=0;exitDy=0;entryX=0;entryY=0.5;entryDx=0;entryDy=0;fontFamily=Consolas;fontStyle=1;fontSize=18;labelBorderColor=none;textShadow=0;strokeWidth=1;" parent="1" source="hpfhYlzzf-C4YX28FUgR-111" target="hpfhYlzzf-C4YX28FUgR-112" edge="1">
          <mxGeometry relative="1" as="geometry" />
        </mxCell>
        <mxCell id="hpfhYlzzf-C4YX28FUgR-109" style="edgeStyle=none;rounded=0;orthogonalLoop=1;jettySize=auto;html=1;exitX=1;exitY=0.5;exitDx=0;exitDy=0;entryX=0;entryY=0.5;entryDx=0;entryDy=0;fontFamily=Consolas;fontStyle=1;fontSize=18;labelBorderColor=none;textShadow=0;strokeWidth=1;" parent="1" source="hpfhYlzzf-C4YX28FUgR-111" target="hpfhYlzzf-C4YX28FUgR-113" edge="1">
          <mxGeometry relative="1" as="geometry" />
        </mxCell>
        <mxCell id="hpfhYlzzf-C4YX28FUgR-110" style="edgeStyle=none;rounded=0;orthogonalLoop=1;jettySize=auto;html=1;exitX=1;exitY=0.5;exitDx=0;exitDy=0;entryX=0;entryY=0.5;entryDx=0;entryDy=0;fontFamily=Consolas;fontStyle=1;fontSize=18;labelBorderColor=none;textShadow=0;strokeWidth=1;" parent="1" source="hpfhYlzzf-C4YX28FUgR-111" target="hpfhYlzzf-C4YX28FUgR-114" edge="1">
          <mxGeometry relative="1" as="geometry" />
        </mxCell>
        <mxCell id="hpfhYlzzf-C4YX28FUgR-111" value="&lt;span style=&quot;font-size: 18px;&quot;&gt;&lt;span style=&quot;font-size: 18px;&quot;&gt;Profile&lt;br style=&quot;font-size: 18px;&quot;&gt;&lt;/span&gt;&lt;/span&gt;" style="ellipse;whiteSpace=wrap;html=1;fontFamily=Consolas;fontStyle=1;fontSize=18;labelBorderColor=none;textShadow=0;strokeWidth=1;fillColor=#b1ddf0;strokeColor=#10739e;" parent="1" vertex="1">
          <mxGeometry x="620" y="-110" width="140" height="70" as="geometry" />
        </mxCell>
        <mxCell id="hpfhYlzzf-C4YX28FUgR-112" value="&lt;span style=&quot;font-size: 18px;&quot;&gt;&lt;span style=&quot;font-size: 18px;&quot;&gt;View&lt;/span&gt;&lt;/span&gt;" style="ellipse;whiteSpace=wrap;html=1;fontFamily=Consolas;fontStyle=1;fontSize=18;labelBorderColor=none;textShadow=0;strokeWidth=1;fillColor=#b1ddf0;strokeColor=#10739e;" parent="1" vertex="1">
          <mxGeometry x="935" y="-190" width="140" height="70" as="geometry" />
        </mxCell>
        <mxCell id="hpfhYlzzf-C4YX28FUgR-113" value="&lt;span style=&quot;font-size: 18px;&quot;&gt;&lt;span style=&quot;font-size: 18px;&quot;&gt;Update&lt;/span&gt;&lt;/span&gt;" style="ellipse;whiteSpace=wrap;html=1;fontFamily=Consolas;fontStyle=1;fontSize=18;labelBorderColor=none;textShadow=0;strokeWidth=1;fillColor=#b1ddf0;strokeColor=#10739e;" parent="1" vertex="1">
          <mxGeometry x="935" y="-110" width="140" height="70" as="geometry" />
        </mxCell>
        <mxCell id="hpfhYlzzf-C4YX28FUgR-114" value="&lt;span style=&quot;font-size: 18px;&quot;&gt;&lt;span style=&quot;font-size: 18px;&quot;&gt;Delete&lt;/span&gt;&lt;/span&gt;" style="ellipse;whiteSpace=wrap;html=1;fontFamily=Consolas;fontStyle=1;fontSize=18;labelBorderColor=none;textShadow=0;strokeWidth=1;fillColor=#b1ddf0;strokeColor=#10739e;" parent="1" vertex="1">
          <mxGeometry x="935" y="-30" width="140" height="70" as="geometry" />
        </mxCell>
        <mxCell id="hpfhYlzzf-C4YX28FUgR-115" value="&lt;span style=&quot;font-size: 18px;&quot;&gt;&lt;span style=&quot;font-size: 18px;&quot;&gt;Sign-Up&lt;/span&gt;&lt;/span&gt;" style="ellipse;whiteSpace=wrap;html=1;fontFamily=Consolas;fontStyle=1;fontSize=18;labelBorderColor=none;textShadow=0;strokeWidth=1;fillColor=#b1ddf0;strokeColor=#10739e;" parent="1" vertex="1">
          <mxGeometry x="935" y="-450" width="140" height="70" as="geometry" />
        </mxCell>
        <mxCell id="hpfhYlzzf-C4YX28FUgR-116" value="&lt;span style=&quot;font-size: 18px;&quot;&gt;&lt;span style=&quot;font-size: 18px;&quot;&gt;Sign-In&lt;/span&gt;&lt;/span&gt;" style="ellipse;whiteSpace=wrap;html=1;fontFamily=Consolas;fontStyle=1;fontSize=18;labelBorderColor=none;textShadow=0;strokeWidth=1;fillColor=#b1ddf0;strokeColor=#10739e;" parent="1" vertex="1">
          <mxGeometry x="935" y="-360" width="140" height="70" as="geometry" />
        </mxCell>
        <mxCell id="hpfhYlzzf-C4YX28FUgR-117" value="&lt;span style=&quot;font-size: 18px;&quot;&gt;&lt;span style=&quot;font-size: 18px;&quot;&gt;Sign-Out&lt;/span&gt;&lt;/span&gt;" style="ellipse;whiteSpace=wrap;html=1;fontFamily=Consolas;fontStyle=1;fontSize=18;labelBorderColor=none;textShadow=0;strokeWidth=1;fillColor=#b1ddf0;strokeColor=#10739e;" parent="1" vertex="1">
          <mxGeometry x="935" y="-270" width="140" height="70" as="geometry" />
        </mxCell>
        <mxCell id="hpfhYlzzf-C4YX28FUgR-118" value="&lt;font style=&quot;font-size: 18px;&quot;&gt;Orders&lt;/font&gt;&lt;div style=&quot;font-size: 18px;&quot;&gt;&lt;font style=&quot;font-size: 18px;&quot;&gt;history&lt;/font&gt;&lt;/div&gt;" style="ellipse;whiteSpace=wrap;html=1;fontFamily=Consolas;fontStyle=1;fontSize=18;labelBorderColor=none;textShadow=0;strokeWidth=1;fillColor=#b1ddf0;strokeColor=#10739e;" parent="1" vertex="1">
          <mxGeometry x="630" y="790" width="140" height="70" as="geometry" />
        </mxCell>
        <mxCell id="hpfhYlzzf-C4YX28FUgR-119" value="&lt;span style=&quot;font-size: 18px;&quot;&gt;&lt;font style=&quot;font-size: 18px;&quot;&gt;If logged in&lt;/font&gt;&lt;/span&gt;" style="endArrow=block;endSize=16;endFill=0;html=1;rounded=0;exitX=1.036;exitY=0.667;exitDx=0;exitDy=0;fontFamily=Consolas;fontStyle=1;fontSize=18;labelBorderColor=none;textShadow=0;exitPerimeter=0;entryX=0;entryY=0.5;entryDx=0;entryDy=0;strokeWidth=1;" parent="1" source="hpfhYlzzf-C4YX28FUgR-25" target="hpfhYlzzf-C4YX28FUgR-29" edge="1">
          <mxGeometry width="160" relative="1" as="geometry">
            <mxPoint x="995" y="930" as="sourcePoint" />
            <mxPoint x="890" y="770" as="targetPoint" />
          </mxGeometry>
        </mxCell>
        <mxCell id="hpfhYlzzf-C4YX28FUgR-120" value="Track Orders" style="ellipse;whiteSpace=wrap;html=1;fontFamily=Consolas;fontStyle=1;fontSize=18;labelBorderColor=none;textShadow=0;strokeWidth=1;fillColor=#f8cecc;strokeColor=#b85450;gradientColor=#ea6b66;" parent="1" vertex="1">
          <mxGeometry x="1790" y="740" width="140" height="70" as="geometry" />
        </mxCell>
        <mxCell id="hpfhYlzzf-C4YX28FUgR-126" style="edgeStyle=none;rounded=0;orthogonalLoop=1;jettySize=auto;html=1;exitX=1;exitY=0.5;exitDx=0;exitDy=0;entryX=0;entryY=0.5;entryDx=0;entryDy=0;" parent="1" source="hpfhYlzzf-C4YX28FUgR-122" target="hpfhYlzzf-C4YX28FUgR-123" edge="1">
          <mxGeometry relative="1" as="geometry" />
        </mxCell>
        <mxCell id="hpfhYlzzf-C4YX28FUgR-127" style="edgeStyle=none;rounded=0;orthogonalLoop=1;jettySize=auto;html=1;exitX=1;exitY=0.5;exitDx=0;exitDy=0;entryX=0;entryY=0.5;entryDx=0;entryDy=0;" parent="1" source="hpfhYlzzf-C4YX28FUgR-122" target="hpfhYlzzf-C4YX28FUgR-124" edge="1">
          <mxGeometry relative="1" as="geometry" />
        </mxCell>
        <mxCell id="hpfhYlzzf-C4YX28FUgR-128" style="edgeStyle=none;rounded=0;orthogonalLoop=1;jettySize=auto;html=1;exitX=1;exitY=0.5;exitDx=0;exitDy=0;entryX=0;entryY=0.5;entryDx=0;entryDy=0;" parent="1" source="hpfhYlzzf-C4YX28FUgR-122" target="hpfhYlzzf-C4YX28FUgR-125" edge="1">
          <mxGeometry relative="1" as="geometry" />
        </mxCell>
        <mxCell id="hpfhYlzzf-C4YX28FUgR-122" value="&lt;div style=&quot;font-size: 18px;&quot;&gt;&lt;span style=&quot;font-size: 18px;&quot;&gt;&lt;span style=&quot;font-size: 18px;&quot;&gt;User&lt;/span&gt;&lt;/span&gt;&lt;/div&gt;&lt;span style=&quot;font-size: 18px;&quot;&gt;&lt;span style=&quot;font-size: 18px;&quot;&gt;Authentication&lt;/span&gt;&lt;/span&gt;" style="ellipse;whiteSpace=wrap;html=1;fontFamily=Consolas;fontStyle=1;fontSize=18;labelBorderColor=none;textShadow=0;strokeWidth=1;fillColor=#f5f5f5;strokeColor=#666666;gradientColor=#b3b3b3;" parent="1" vertex="1">
          <mxGeometry x="640" y="1130" width="140" height="100" as="geometry" />
        </mxCell>
        <mxCell id="hpfhYlzzf-C4YX28FUgR-123" value="&lt;span style=&quot;font-size: 18px;&quot;&gt;&lt;span style=&quot;font-size: 18px;&quot;&gt;Sign-Up&lt;/span&gt;&lt;/span&gt;" style="ellipse;whiteSpace=wrap;html=1;fontFamily=Consolas;fontStyle=1;fontSize=18;labelBorderColor=none;textShadow=0;strokeWidth=1;fillColor=#f5f5f5;strokeColor=#666666;gradientColor=#b3b3b3;" parent="1" vertex="1">
          <mxGeometry x="955" y="1055" width="140" height="70" as="geometry" />
        </mxCell>
        <mxCell id="hpfhYlzzf-C4YX28FUgR-124" value="&lt;span style=&quot;font-size: 18px;&quot;&gt;&lt;span style=&quot;font-size: 18px;&quot;&gt;Sign-In&lt;/span&gt;&lt;/span&gt;" style="ellipse;whiteSpace=wrap;html=1;fontFamily=Consolas;fontStyle=1;fontSize=18;labelBorderColor=none;textShadow=0;strokeWidth=1;fillColor=#f5f5f5;strokeColor=#666666;gradientColor=#b3b3b3;" parent="1" vertex="1">
          <mxGeometry x="955" y="1145" width="140" height="70" as="geometry" />
        </mxCell>
        <mxCell id="hpfhYlzzf-C4YX28FUgR-125" value="&lt;span style=&quot;font-size: 18px;&quot;&gt;&lt;span style=&quot;font-size: 18px;&quot;&gt;Sign-Out&lt;/span&gt;&lt;/span&gt;" style="ellipse;whiteSpace=wrap;html=1;fontFamily=Consolas;fontStyle=1;fontSize=18;labelBorderColor=none;textShadow=0;strokeWidth=1;fillColor=#f5f5f5;strokeColor=#666666;gradientColor=#b3b3b3;" parent="1" vertex="1">
          <mxGeometry x="955" y="1235" width="140" height="70" as="geometry" />
        </mxCell>
        <mxCell id="hpfhYlzzf-C4YX28FUgR-138" style="edgeStyle=none;rounded=0;orthogonalLoop=1;jettySize=auto;html=1;exitX=0;exitY=0.5;exitDx=0;exitDy=0;entryX=1;entryY=0.5;entryDx=0;entryDy=0;" parent="1" source="hpfhYlzzf-C4YX28FUgR-130" target="hpfhYlzzf-C4YX28FUgR-135" edge="1">
          <mxGeometry relative="1" as="geometry" />
        </mxCell>
        <mxCell id="hpfhYlzzf-C4YX28FUgR-139" style="edgeStyle=none;rounded=0;orthogonalLoop=1;jettySize=auto;html=1;exitX=0;exitY=0.5;exitDx=0;exitDy=0;entryX=1;entryY=0.5;entryDx=0;entryDy=0;" parent="1" source="hpfhYlzzf-C4YX28FUgR-130" target="hpfhYlzzf-C4YX28FUgR-136" edge="1">
          <mxGeometry relative="1" as="geometry" />
        </mxCell>
        <mxCell id="hpfhYlzzf-C4YX28FUgR-140" style="edgeStyle=none;rounded=0;orthogonalLoop=1;jettySize=auto;html=1;exitX=0;exitY=0.5;exitDx=0;exitDy=0;entryX=1;entryY=0.5;entryDx=0;entryDy=0;" parent="1" source="hpfhYlzzf-C4YX28FUgR-130" target="hpfhYlzzf-C4YX28FUgR-137" edge="1">
          <mxGeometry relative="1" as="geometry" />
        </mxCell>
        <mxCell id="hpfhYlzzf-C4YX28FUgR-130" value="&lt;div style=&quot;font-size: 18px;&quot;&gt;&lt;span style=&quot;font-size: 18px;&quot;&gt;&lt;span style=&quot;font-size: 18px;&quot;&gt;User&lt;/span&gt;&lt;/span&gt;&lt;/div&gt;&lt;span style=&quot;font-size: 18px;&quot;&gt;&lt;span style=&quot;font-size: 18px;&quot;&gt;Authentication&lt;/span&gt;&lt;/span&gt;" style="ellipse;whiteSpace=wrap;html=1;fontFamily=Consolas;fontStyle=1;fontSize=18;labelBorderColor=none;textShadow=0;strokeWidth=1;fillColor=#d5e8d4;strokeColor=#82b366;gradientColor=#97d077;" parent="1" vertex="1">
          <mxGeometry x="1792.5" y="1145" width="140" height="100" as="geometry" />
        </mxCell>
        <mxCell id="hpfhYlzzf-C4YX28FUgR-135" value="&lt;span style=&quot;font-size: 18px;&quot;&gt;&lt;span style=&quot;font-size: 18px;&quot;&gt;Sign-Up&lt;/span&gt;&lt;/span&gt;" style="ellipse;whiteSpace=wrap;html=1;fontFamily=Consolas;fontStyle=1;fontSize=18;labelBorderColor=none;textShadow=0;strokeWidth=1;fillColor=#d5e8d4;strokeColor=#82b366;gradientColor=#97d077;" parent="1" vertex="1">
          <mxGeometry x="1492.5" y="1070" width="140" height="70" as="geometry" />
        </mxCell>
        <mxCell id="hpfhYlzzf-C4YX28FUgR-136" value="&lt;span style=&quot;font-size: 18px;&quot;&gt;&lt;span style=&quot;font-size: 18px;&quot;&gt;Sign-In&lt;/span&gt;&lt;/span&gt;" style="ellipse;whiteSpace=wrap;html=1;fontFamily=Consolas;fontStyle=1;fontSize=18;labelBorderColor=none;textShadow=0;strokeWidth=1;fillColor=#d5e8d4;strokeColor=#82b366;gradientColor=#97d077;" parent="1" vertex="1">
          <mxGeometry x="1492.5" y="1160" width="140" height="70" as="geometry" />
        </mxCell>
        <mxCell id="hpfhYlzzf-C4YX28FUgR-137" value="&lt;span style=&quot;font-size: 18px;&quot;&gt;&lt;span style=&quot;font-size: 18px;&quot;&gt;Sign-Out&lt;/span&gt;&lt;/span&gt;" style="ellipse;whiteSpace=wrap;html=1;fontFamily=Consolas;fontStyle=1;fontSize=18;labelBorderColor=none;textShadow=0;strokeWidth=1;fillColor=#d5e8d4;strokeColor=#82b366;gradientColor=#97d077;" parent="1" vertex="1">
          <mxGeometry x="1492.5" y="1250" width="140" height="70" as="geometry" />
        </mxCell>
      </root>
    </mxGraphModel>
  </diagram>
</mxfile>
